<?xml version="1.0" encoding="utf-8"?>
<!-- Generator: Adobe Illustrator 19.2.1, SVG Export Plug-In . SVG Version: 6.00 Build 0)  -->
<svg version="1.1" id="Capa_1" xmlns="http://www.w3.org/2000/svg" xmlns:xlink="http://www.w3.org/1999/xlink" x="0px" y="0px"
	 viewBox="0 0 150 50" style="enable-background:new 0 0 150 50;" xml:space="preserve">
<style type="text/css">
	.st0{fill:#3A3A3A;}
</style>
<g>
	<path class="st0" d="M142.9,14c0-1.7,1.4-3.1,3-3.1c0.8,0,1.5,0.3,2.1,0.9c0.6,0.6,0.9,1.4,0.9,2.2s-0.3,1.6-0.9,2.2
		c-0.6,0.6-1.3,0.9-2.1,0.9C144.3,17,142.9,15.7,142.9,14 M142.7,14c0,1.8,1.5,3.3,3.3,3.3c0.9,0,1.7-0.3,2.3-1c0.6-0.6,1-1.5,1-2.4
		s-0.3-1.7-1-2.4s-1.4-1-2.3-1C144.2,10.7,142.7,12.2,142.7,14 M144.7,16h0.5v-1.5h1.1c0.2,0,0.3,0,0.4,0.1c0.1,0.1,0.2,0.2,0.2,0.5
		l0.1,0.6V16c0,0.1,0,0.1,0.1,0.1h0.6V16c-0.1,0-0.1-0.1-0.1-0.2c0-0.1,0-0.2,0-0.3V15c0-0.2-0.1-0.4-0.1-0.4
		c-0.1-0.1-0.2-0.2-0.3-0.2c0.2-0.1,0.3-0.2,0.4-0.3c0.1-0.1,0.1-0.3,0.1-0.5c0-0.4-0.2-0.7-0.5-0.9c-0.2-0.1-0.4-0.1-0.6-0.1H145
		L144.7,16z M145.2,14v-1.2h1.1c0.2,0,0.3,0,0.4,0.1c0.2,0.1,0.2,0.3,0.2,0.5s-0.1,0.4-0.2,0.5c-0.1,0.1-0.3,0.1-0.5,0.1
		C146.2,14,145.2,14,145.2,14z M14.2,18.6L0.8,39.7H10l12.9-20.2L14.2,18.6z M69.5,18.1v-7.8H43.4c-3.6,0.2-5.1,1.9-6.3,3.2
		s-1.9,4-1.9,4v-7.1H21.3c-1.1,0-2,0.4-2.8,1.5c-0.8,1-4,6.3-4,6.3h55V18.1z M140.6,18.1v-7.8h-28c-3.5,0.2-5.1,1.9-6.3,3.2
		c-1.2,1.3-1.9,4-1.9,4v0.6H140.6z M78.7,10.3h-7.8v7.8h7.8V10.3z M104.3,10.3h-7.8v7.8h7.8V10.3z M104.3,20.9l-7.7-0.5v9
		c0,0,0,2.6-2.5,2.6H80.9c0,0-2.2-0.2-2.2-2.6V19.2L71,18.6v13.9c1.2,6.6,7.2,7.2,7.2,7.2s0.6,0,0.7,0.1h17.8c0,0,7.6-0.6,7.6-8
		L104.3,20.9z M27.2,39.7h36.6c6.4-1.3,7-7.1,7-7.1c0.3-1.7,0.1-3.1,0.1-3.1c-0.2-1.2-2.4-6.3-7.2-6.7c-2.8-0.3-28.2-2.3-28.2-2.3
		c0.5,2.5,1.6,3.8,2.4,4.6c1.8,1.7,4.6,2.2,4.6,2.2L62,28.9c0.6,0,1.7,0.2,1.7,1.7c0,0.2-0.2,1.5-1.6,1.5H34.8V20.4l-7.6-0.6
		C27.2,19.8,27.2,39.7,27.2,39.7L27.2,39.7z M104.4,39.7h28c7-0.4,8-7.1,8-7.1c0.2-1.7,0.1-3.2,0.1-3.2c-0.2-1.6-2.4-6.3-7.2-6.8
		c-2.8-0.3-28.3-1.8-28.3-1.8c0.7,2.6,1.8,3.4,2.5,4.1c1.8,1.7,4.4,2.1,4.4,2.1c0.7,0.1,19.7,1.7,19.7,1.7c0.6,0,1.9,0.1,1.9,1.6
		c0,0.4-0.2,0.9-0.5,1.2c0,0-0.7,0.4-1.3,0.4h-27.2L104.4,39.7z"/>
</g>
</svg>
