<?xml version="1.0" encoding="utf-8"?>
<!-- Generator: Adobe Illustrator 19.2.1, SVG Export Plug-In . SVG Version: 6.00 Build 0)  -->
<svg version="1.1" id="Capa_1" xmlns="http://www.w3.org/2000/svg" xmlns:xlink="http://www.w3.org/1999/xlink" x="0px" y="0px"
	 viewBox="0 0 150 50" style="enable-background:new 0 0 150 50;" xml:space="preserve">
<style type="text/css">
	.st0{fill:#3A3A3A;}
</style>
<g>
	<path class="st0" d="M101.6,5.6H87.3v13.6L67.1,31.8l-4.2-2.4l20.2-12.7l-9-5.8L53.8,23.6l-3.5-2.3L70.5,8.6l-9.1-5.7l-23,14.4
		C35.1,9,26.7,5.6,16.5,5.6H0.9V45H20c9.1,0,16.1-4.7,18.7-12.3l23,14.5L87.3,31v13.9h26.9V32.3h-12.6L101.6,5.6L101.6,5.6z
		 M17.1,33.1h-1.9V17.9h1.9c5.2,0,8.4,2.3,8.4,7.9C25.5,30.9,21.9,33.1,17.1,33.1L17.1,33.1z M131.7,5.6h-14.3V45h26.9V32.3h-12.6
		L131.7,5.6L131.7,5.6z M142.4,5.3h1.1v2.9h0.4V5.3h1.1V4.9h-2.7L142.4,5.3z M148.4,4.9l-0.9,2.8l0,0l-0.9-2.8H146v3.3h0.4v-2
		c0-0.1,0-0.5,0-0.8l0,0l0.9,2.8h0.4l0.9-2.8l0,0c0,0.3,0,0.7,0,0.8v2h0.4V4.9H148.4L148.4,4.9z"/>
</g>
</svg>
