<?xml version="1.0" encoding="utf-8"?>
<!-- Generator: Adobe Illustrator 19.2.1, SVG Export Plug-In . SVG Version: 6.00 Build 0)  -->
<svg version="1.1" id="Capa_1" xmlns="http://www.w3.org/2000/svg" xmlns:xlink="http://www.w3.org/1999/xlink" x="0px" y="0px"
	 viewBox="0 0 150 50" style="enable-background:new 0 0 150 50;" xml:space="preserve">
<style type="text/css">
	.st0{fill:#393335;}
	.st1{fill:#2F2A2A;}
	.st2{fill:#434141;}
</style>
<g>
	<path class="st0" d="M104.3,42.7v-4.9c0-2.4-2.2-3.4-4.6-3.4c-1.2,0-2.5,0.3-3.6,0.8l0.8,1.4c0.9-0.5,1.8-0.7,2.8-0.7
		c1.3,0,3,0.4,3,2v1c-0.9-0.7-1.9-1.1-3.1-1.1c-2.8,0-4.4,1.6-4.4,3.4c0,2.2,1.9,3.6,4.4,3.6c1.2,0.1,2.3-0.4,3.1-1.3
		c0.2,0.8,0.9,1.1,2.2,1.1c0.4,0,0.8,0,1.1,0v-1.6h-0.8C104.8,43.2,104.5,43.1,104.3,42.7z M99.9,43.3c-2.1,0-2.8-1-2.8-2
		c0-1,0.7-2,2.8-2s2.8,1,2.8,2S102,43.3,99.9,43.3L99.9,43.3z"/>
	<polygon class="st0" points="92.7,34.6 94.5,34.6 90.8,44.6 89.4,44.6 86.7,36.8 86.7,36.8 84,44.6 82.6,44.6 78.9,34.6 80.7,34.6 
		83.3,41.9 83.3,41.9 85.8,34.6 87.6,34.6 90.1,41.9 90.1,41.9 	"/>
	<path class="st0" d="M42.5,38H49c0,4.3-3.5,7.7-7.8,7.6c-4.2,0-7.6-3.4-7.6-7.6s3.4-7.6,7.6-7.6c1.9,0,3.8,0.7,5.2,2l-1.2,1.4
		c-1.1-1-2.5-1.6-4-1.7c-3.2,0.1-5.8,2.9-5.6,6.1c0.1,3,2.6,5.5,5.6,5.6c2.6,0,4.8-1.7,5.5-4.2h-4.3V38z"/>
	<path class="st0" d="M73.2,34.4c-2.8-0.1-5.1,2.1-5.1,4.9c0,0.1,0,0.2,0,0.3c-0.1,2.8,2.2,5.2,5,5.2c0.1,0,0.3,0,0.4,0
		c1.8,0,3.4-0.8,4.5-2.2l-1.3-1.1c-0.8,1-1.9,1.6-3.2,1.6c-1.8,0.1-3.3-1.2-3.6-2.9h8.5C78.4,36.8,76.3,34.4,73.2,34.4z M69.9,38.9
		c0.3-1.8,2.1-3,3.9-2.7c1.4,0.2,2.4,1.3,2.7,2.7H69.9z"/>
	<polygon class="st0" points="116.4,34.6 109.9,49.2 108.1,49.2 110.3,44.2 106.2,34.6 108.2,34.6 111.4,42.3 114.6,34.6 	"/>
	<path class="st0" d="M65.2,43h1.2v1.6c-0.3,0-1.1,0-1.5,0c-1.8,0-2.3-0.6-2.3-2.2v-6.3h-1.4v-1.5h1.4v-2.4h1.7v2.4h2v1.5h-2v6.1
		C64.4,42.8,64.6,43,65.2,43z"/>
	<path class="st0" d="M59,42.7v-4.9c0-2.4-2.2-3.4-4.6-3.4c-1.2,0-2.5,0.3-3.6,0.8l0.8,1.4c0.8-0.5,1.8-0.7,2.7-0.7c1.4,0,3,0.4,3,2
		v1c-0.9-0.7-1.9-1.1-3.1-1.1c-2.8,0-4.4,1.6-4.4,3.4c0,2.2,1.9,3.6,4.4,3.6c1.2,0.1,2.3-0.4,3.1-1.3c0.2,0.8,0.9,1.1,2.2,1.1
		c0.4,0,0.8,0,1.1,0v-1.6h-0.8C59.4,43.2,59.1,43,59,42.7z M54.5,43.3c-2.1,0-2.8-1-2.8-2c0-1,0.7-2,2.8-2s2.8,1,2.8,2
		S56.6,43.3,54.5,43.3z"/>
	<path class="st1" d="M75.2,27c0.9-2.4,0.9-11.1,0-12.4l0,0c-0.5,0-7.4-0.2-7.4,5.4c0,1.6,0.5,3.1,0.1,3.8v0.1L75.2,27L75.2,27
		L75.2,27z M69.8,5.9c0,0-5.6-3-9.2-2.5v11.6h0.1C70.1,15.8,69.8,5.9,69.8,5.9L69.8,5.9L69.8,5.9z"/>
	<path class="st0" d="M75.2,14.6V27l5.9-3l0,0C81.1,17,76.7,14.6,75.2,14.6L75.2,14.6L75.2,14.6z M86.4,21.3L86.4,21.3l3.3-1.6v-5.4
		l0,0C89.3,14.5,84.7,17,86.4,21.3L86.4,21.3L86.4,21.3z M79.3,6.3L79.3,6.3c0,0,1.3,3.8,2.7,4.6c3.3,1.8,7.2-3,7.5-3.4l0,0v-4
		C89.6,3.5,83.2,2.5,79.3,6.3L79.3,6.3L79.3,6.3z"/>
	<path class="st2" d="M79.3,6.3l10.2-2.8L76.4,0.8l-2.9,0.5h0.1C74.1,1.4,78,3,79.3,6.3L79.3,6.3L79.3,6.3z M69.8,5.9
		c0,0,4.6-1.5-1.8-3.7H68l-7.3,1.2L69.8,5.9z"/>
</g>
</svg>
