<?xml version="1.0" encoding="utf-8"?>
<!-- Generator: Adobe Illustrator 19.2.1, SVG Export Plug-In . SVG Version: 6.00 Build 0)  -->
<svg version="1.1" id="Capa_1" xmlns="http://www.w3.org/2000/svg" xmlns:xlink="http://www.w3.org/1999/xlink" x="0px" y="0px"
	 viewBox="0 0 150 50" style="enable-background:new 0 0 150 50;" xml:space="preserve">
<style type="text/css">
	.st0{fill:#3A3A3A;}
</style>
<g>
	<path class="st0" d="M74.9,0.2c0.7,0,1.5-0.2,2.2,0c3.3,0.3,6.5,1.2,9.3,2.7c3.7,1.9,7,4.8,9.3,8.3c2.4,3.6,3.8,7.7,4.1,12
		c-0.1,1.1-0.1,2.3,0,3.4c-0.2,3.2-1,6.5-2.5,9.4c-1.6,3.4-4.1,6.4-7.1,8.7c-3.7,2.9-8.3,4.7-12.9,5.2c-0.7,0.1-1.4,0.2-2.1,0.1
		c-0.5,0-1,0.1-1.4-0.1c1.8-4.9,3.5-9.9,5.3-14.8c1.9,0,3.8,0,5.8,0c1.2,0,2.4-0.8,2.8-2c1.6-4.6,3.3-9.1,4.9-13.7
		c0.3-0.7,0.4-1.5,0.2-2.2c-0.3-0.9-1.1-1.6-2-1.8c-0.8-0.2-1.6-0.2-2.4-0.2c-2.5,0-4.9,0-7.4,0c0,0.1-0.1,0.2-0.2,0.3
		c-4,11.2-8,22.5-12,33.7c-4.1-1.1-8-3.2-11-6.2c-3.7-3.5-6.3-8.2-7.2-13.2c-0.3-1.5-0.4-3-0.5-4.6c0.1-3.2,0.6-6.4,1.8-9.3
		c2.9-7.5,9.7-13.4,17.6-15.1c-4,11.2-8,22.4-12,33.6c0.3,0.1,0.5,0,0.8,0.1c1.5,0,2.9,0,4.4,0c0.2,0,0.2-0.3,0.3-0.4
		c1.8-5,3.6-10,5.3-15c0.1-0.3,0.2-0.6,0.3-0.9c0.9,0,1.8,0,2.8,0c-1.9,5.4-3.8,10.8-5.8,16.2c0.2,0.1,0.4,0.1,0.6,0.1
		c1.5,0,3.1,0,4.6,0c1.7-4.9,3.5-9.8,5.3-14.7c0.4-1,0.4-2.2-0.2-3.1c-0.5-0.8-1.5-1.2-2.4-1.3c-1.3,0-2.6,0-3.9,0
		C71.4,10.2,73.2,5.2,74.9,0.2z"/>
	<path class="st0" d="M85.2,18.1c0.2-0.2,0.4-0.1,0.6-0.1c0.7,0,1.4,0,2.1,0c-1.7,4.7-3.4,9.5-5,14.2c-0.9,0.1-1.9,0-2.8,0
		C81.8,27.5,83.5,22.8,85.2,18.1L85.2,18.1z"/>
</g>
</svg>
