<?xml version="1.0" encoding="utf-8"?>
<!-- Generator: Adobe Illustrator 19.2.1, SVG Export Plug-In . SVG Version: 6.00 Build 0)  -->
<svg version="1.1" id="Capa_1" xmlns="http://www.w3.org/2000/svg" xmlns:xlink="http://www.w3.org/1999/xlink" x="0px" y="0px"
	 viewBox="0 0 150 50" style="enable-background:new 0 0 150 50;" xml:space="preserve">
<style type="text/css">
	.st0{fill:#3A3A3A;}
</style>
<g>
	<path class="st0" d="M129.7,26.7c0,3-2.1,5.2-5,5.2c-2.8,0-5-2.3-5-5.2c0-3,2.1-5.2,5-5.2C127.7,21.5,129.9,23.8,129.7,26.7z"/>
	<path class="st0" d="M85.3,21.5c-2.9,0-5,2.2-5,5.2c0,2.9,2.2,5.2,5,5.2c2.9,0,5-2.2,5-5.2C90.4,23.8,88.2,21.5,85.3,21.5z
		 M85.3,21.5c-2.9,0-5,2.2-5,5.2c0,2.9,2.2,5.2,5,5.2c2.9,0,5-2.2,5-5.2C90.4,23.8,88.2,21.5,85.3,21.5z M43,21.1
		c-1.8,0-3.2,0.7-4,1.9c-0.7,1.1-1.2,2.6-1,4.4l8.9-3.7C46.3,22.2,44.8,21.1,43,21.1z M85.3,21.5c-2.9,0-5,2.2-5,5.2
		c0,2.9,2.2,5.2,5,5.2c2.9,0,5-2.2,5-5.2C90.4,23.8,88.2,21.5,85.3,21.5z M85.3,21.5c-2.9,0-5,2.2-5,5.2c0,2.9,2.2,5.2,5,5.2
		c2.9,0,5-2.2,5-5.2C90.4,23.8,88.2,21.5,85.3,21.5z M43,21.1c-1.8,0-3.2,0.7-4,1.9c-0.7,1.1-1.2,2.6-1,4.4l8.9-3.7
		C46.3,22.2,44.8,21.1,43,21.1z M43,21.1c-1.8,0-3.2,0.7-4,1.9c-0.7,1.1-1.2,2.6-1,4.4l8.9-3.7C46.3,22.2,44.8,21.1,43,21.1z
		 M85.3,21.5c-2.9,0-5,2.2-5,5.2c0,2.9,2.2,5.2,5,5.2c2.9,0,5-2.2,5-5.2C90.4,23.8,88.2,21.5,85.3,21.5z M85.3,21.5
		c-2.9,0-5,2.2-5,5.2c0,2.9,2.2,5.2,5,5.2c2.9,0,5-2.2,5-5.2C90.4,23.8,88.2,21.5,85.3,21.5z M43,21.1c-1.8,0-3.2,0.7-4,1.9
		c-0.7,1.1-1.2,2.6-1,4.4l8.9-3.7C46.3,22.2,44.8,21.1,43,21.1z M2.1,0.7v48.6h145.8V0.7H2.1z M32.5,36.1H15.6V11.8h5.2v19.5h11.7
		V36.1z M43.5,32.2c1.9,0,3.2-0.3,5.4-1.9l3.2,2.3c-1.7,1.9-5.2,3.6-8.7,3.6c-6.2,0-10.5-4-10.5-9.6c0-5.5,4.3-9.6,9.9-9.6
		c3.2,0,5.6,1,7.4,3c1.1,1.4,1.9,3.2,2.2,5.2l-13.1,5.5C40.4,31.7,41.7,32.2,43.5,32.2z M73.1,36.1H68V25.5c0-2.5-2.2-4-4.3-4
		c-2.8,0-4.3,2.1-4.3,4v10.7h-5.1V17.5h5.1v2.6c1.5-2.1,3.8-3,6.1-3c4.5,0,7.7,3.2,7.6,7.4V36.1z M85.3,36.4c-5.7,0-10-4.1-10-9.6
		c0-5.4,4.4-9.6,10-9.6s10,4.1,10,9.6S90.9,36.4,85.3,36.4z M102.3,36.1l-7.7-18.7h5.8l4.7,12.8l4.7-12.8h5.8L108,36.1H102.3z
		 M124.8,36.4c-5.6,0-10.1-4.1-10.1-9.6c0-5.4,4.4-9.6,10.1-9.6c5.6,0,10.1,4.1,10.1,9.6C135,32.2,130.6,36.4,124.8,36.4z M137,33.9
		h-0.8v2.2h-0.5v-2.2h-0.8v-0.4h2.2L137,33.9L137,33.9z M140.3,36.2h-0.5v-1.9l-0.8,1.2l-0.8-1.2v1.9h-0.6v-2.8h0.6l0.8,1.2l0.8-1.2
		h0.5V36.2z M85.3,21.5c-2.9,0-5,2.2-5,5.2c0,2.9,2.2,5.2,5,5.2c2.9,0,5-2.2,5-5.2C90.4,23.8,88.2,21.5,85.3,21.5z M43,21.1
		c-1.8,0-3.2,0.7-4,1.9c-0.7,1.1-1.2,2.6-1,4.4l8.9-3.7C46.3,22.2,44.8,21.1,43,21.1z M43,21.1c-1.8,0-3.2,0.7-4,1.9
		c-0.7,1.1-1.2,2.6-1,4.4l8.9-3.7C46.3,22.2,44.8,21.1,43,21.1z M85.3,21.5c-2.9,0-5,2.2-5,5.2c0,2.9,2.2,5.2,5,5.2
		c2.9,0,5-2.2,5-5.2C90.4,23.8,88.2,21.5,85.3,21.5z M85.3,21.5c-2.9,0-5,2.2-5,5.2c0,2.9,2.2,5.2,5,5.2c2.9,0,5-2.2,5-5.2
		C90.4,23.8,88.2,21.5,85.3,21.5z M43,21.1c-1.8,0-3.2,0.7-4,1.9c-0.7,1.1-1.2,2.6-1,4.4l8.9-3.7C46.3,22.2,44.8,21.1,43,21.1z
		 M85.3,21.5c-2.9,0-5,2.2-5,5.2c0,2.9,2.2,5.2,5,5.2c2.9,0,5-2.2,5-5.2C90.4,23.8,88.2,21.5,85.3,21.5z M85.3,21.5
		c-2.9,0-5,2.2-5,5.2c0,2.9,2.2,5.2,5,5.2c2.9,0,5-2.2,5-5.2C90.4,23.8,88.2,21.5,85.3,21.5z"/>
</g>
</svg>
