<?xml version="1.0" encoding="utf-8"?>
<!-- Generator: Adobe Illustrator 19.2.1, SVG Export Plug-In . SVG Version: 6.00 Build 0)  -->
<svg version="1.1" id="Capa_1" xmlns="http://www.w3.org/2000/svg" xmlns:xlink="http://www.w3.org/1999/xlink" x="0px" y="0px"
	 viewBox="0 0 150 50" style="enable-background:new 0 0 150 50;" xml:space="preserve">
<style type="text/css">
	.st0{fill:#3A3A3A;}
</style>
<g>
	<path class="st0" d="M136.4,43.8l10.3-28.3c0,0-7.7,0-15.4,1.6l-9.7,26.7C121.6,43.8,136.4,43.8,136.4,43.8z M134.6,7.8l-2,5.4
		c7.7-1.6,15.4-1.6,15.4-1.6l2-5.4C150,6.3,142.3,6.3,134.6,7.8 M81.1,37c4.6,0.9,9.4,1.3,14.2,1.3c5,0,8.6-1.1,9-4.5
		c0.2-1.6-1.4-2.8-4.1-4.3c-3.2-1.8-5.9-2.7-8.7-4.5c-2.8-1.9-3.9-4.7-3.1-7.9c1.1-3.7,3.7-5.7,7.5-7.7c4.5-2.3,8.1-3.2,16.9-3.2
		c5.5,0,10.9,0.5,16.1,1.6l-1.9,5.1c-4.6-0.9-9.4-1.3-14.2-1.3c-5,0-8.6,1.1-9,4.5c-0.2,1.6,1.4,2.8,4.1,4.3
		c3.2,1.8,5.9,2.7,8.7,4.5c2.8,1.9,3.9,4.7,3.1,7.9c-1.1,3.7-3.7,5.7-7.5,7.7c-4.5,2.3-8.1,3.2-16.9,3.2c-5.5,0-10.9-0.5-16.1-1.6
		L81.1,37z M58.8,43.8l8.6-23.6c2.9-7.9-7.6-5-10-3.2c-1.9,1.4-5.2,4.6-6.4,8.1l-6.8,18.8H29.4L38,20.2c2.9-7.9-7.6-5-10-3.2
		c-1.9,1.4-5.2,4.6-6.4,8.1l-6.8,18.7H0L13.6,6.3c4.7,0,7.3,1.1,9.4,3.2c0.8,0.8,1.3,1.8,1.6,2.9c2.8-1.7,5.2-3,6.9-3.6
		c3.1-1.2,6.9-2.5,11.6-2.5s7.3,1.1,9.4,3.2c0.8,0.8,1.3,1.8,1.6,2.9c2.8-1.7,5.2-3,6.9-3.6c3.1-1.2,6.9-2.5,11.6-2.5
		s7.3,1.1,9.4,3.2c2.2,2.1,2.1,5.9,1.3,8.1l-9.7,26.2H58.8L58.8,43.8z"/>
</g>
</svg>
