<?xml version="1.0" encoding="utf-8"?>
<!-- Generator: Adobe Illustrator 19.2.1, SVG Export Plug-In . SVG Version: 6.00 Build 0)  -->
<svg version="1.1" id="Capa_1" xmlns="http://www.w3.org/2000/svg" xmlns:xlink="http://www.w3.org/1999/xlink" x="0px" y="0px"
	 viewBox="0 0 150 50" style="enable-background:new 0 0 150 50;" xml:space="preserve">
<style type="text/css">
	.st0{fill:#3A3A3A;}
</style>
<g>
	<path class="st0" d="M149.9,12c-2-11.7-37.2-15.4-78.6-8.2c-17.4,3-33.1,7.5-45.3,12.5c1.9,0,3.3,0.5,4.1,1.3c0.7,0.7,1,1.6,1,2.7
		v1.2H27v-1c0-0.9-0.5-1.4-1.4-1.4c-0.8,0-1.2,0.3-1.4,1c-0.1,0.3,0,0.5,0,0.8c0.4,1.8,6.5,2.9,7.1,6.2c0.1,0.4,0.2,1.3,0,2.6
		c-0.4,2.6-2.7,3.7-5.7,3.7c-4.1,0-5.8-2-5.8-4.6v-1.3h4.3v1.6c0,0.9,0.6,1.4,1.5,1.4c0.8,0,1.3-0.3,1.5-1c0.1-0.3,0.1-0.8,0-1.1
		c-0.8-2-6.4-3-7.1-6.2c-0.2-0.7-0.2-1.4,0-2.1c0.1-0.4,0.2-0.8,0.4-1.1C7,25.1-1,32,0.1,38c2,11.7,37.2,15.4,78.6,8.2
		c18.2-3.2,34.5-7.9,47-13.2c-0.2,0-0.4,0-0.5,0c-2.8,0-5.4-1.1-5.6-4c0-0.5-0.1-0.7-0.1-1v-6.7c0-0.3,0-0.8,0.1-1.1
		c0.3-2.8,2.5-4,5.6-4c2.4,0,5.3,0.7,5.6,4c0,0.4,0,0.8,0,1v0.6h-4.1V21c0,0,0-0.4-0.1-0.6c-0.1-0.3-0.4-1.1-1.5-1.1
		c-1.2,0-1.5,0.8-1.5,1.1c0,0.2-0.1,0.4-0.1,0.7v7.2c0,0.3,0,0.4,0,0.6c0,0.1,0.2,1.1,1.6,1.1c1.3,0,1.5-1,1.6-1.1
		c0-0.2,0-0.4,0-0.6v-2.2h-1.6v-2.4h5.7V28c0,0.3,0,0.5-0.1,1c-0.1,0.8-0.3,1.4-0.7,2C143.3,24.7,150.9,17.9,149.9,12L149.9,12z
		 M42.6,32.7l-2.1-14.1h-0.1l-2.1,14.1H34l2.9-15.9H44l3,15.9H42.6L42.6,32.7z M63.7,32.7l-0.1-13.8h-0.1l-2.6,13.8h-4.1l-2.6-13.8
		h-0.1L54,32.7h-4l0.4-15.9h6.5l1.9,11.8h0.1l1.9-11.8h6.5l0.4,15.9C67.7,32.7,63.7,32.7,63.7,32.7z M82.8,29.6
		c-0.4,3.1-3.5,3.6-5.6,3.6c-3.5,0-5.7-1.5-5.7-4.6v-1.3h4.3v1.6c0,0.9,0.6,1.4,1.5,1.4c0.8,0,1.3-0.3,1.5-1c0.1-0.3,0.1-0.8,0-1.1
		c-0.8-2-6.4-3-7.1-6.2c-0.2-0.7-0.2-1.3,0-2.1c0.5-2.9,3.3-3.5,5.5-3.5c2,0,3.5,0.4,4.4,1.3c0.7,0.7,1,1.6,1,2.7v1.1h-4v-1
		c0-0.9-0.5-1.4-1.4-1.4c-0.8,0-1.2,0.3-1.4,1c0,0.3,0,0.5,0,0.8c0.4,1.8,6.4,2.8,7.1,6.1C82.9,27.5,83,28.3,82.8,29.6z M97.7,28.2
		c0,0.3,0,0.9,0,1c-0.2,2.6-2.1,4-5.6,4s-5.3-1.3-5.6-4c0-0.3,0-0.7,0-1V16.8h4.1v11.8c0,0.3,0,0.5,0,0.6c0.1,0.3,0.3,1.1,1.5,1.1
		s1.4-0.8,1.5-1.1c0-0.1,0-0.3,0-0.6V16.8h4.1V28.2z M115.4,32.6h-5.7L105.9,20h-0.1l0.2,12.6h-4V16.8h6l3.5,12.1h0.1l-0.2-12.1h4
		V32.6L115.4,32.6z"/>
</g>
</svg>
