<?xml version="1.0" encoding="utf-8"?>
<!-- Generator: Adobe Illustrator 19.2.1, SVG Export Plug-In . SVG Version: 6.00 Build 0)  -->
<svg version="1.1" id="Capa_1" xmlns="http://www.w3.org/2000/svg" xmlns:xlink="http://www.w3.org/1999/xlink" x="0px" y="0px"
	 viewBox="0 0 150 50" style="enable-background:new 0 0 150 50;" xml:space="preserve">
<style type="text/css">
	.st0{fill:#3A3A3A;}
</style>
<g>
	<g>
		<path class="st0" d="M143.5,36h6.5l-6.7-22h-9.2l-6.7,22h6.5l1.2-4.1h7.3L143.5,36 M136.5,27l2.2-7.6l0,0l2.2,7.6H136.5z
			 M32.3,36.4c6.7,0,9.9-1.2,10.3-7.2c0.1-1.4,0.1-2.9,0.1-4.3s0-2.8-0.1-4.3c-0.5-6-3.7-7.2-10.3-7.2s-9.9,1.2-10.3,7.2
			c-0.1,1.4-0.1,2.9-0.1,4.3s0,2.8,0.1,4.3C22.5,35.3,25.7,36.4,32.3,36.4 M28.2,25c0-1.2,0-1.9,0.1-2.5c0.2-3.4,1.5-3.8,4.1-3.8
			s4,0.4,4.1,3.8c0,0.5,0.1,1.2,0.1,2.5s0,1.9-0.1,2.5c-0.2,3.4-1.5,3.8-4.1,3.8s-4-0.4-4.1-3.8C28.2,26.9,28.2,26.2,28.2,25
			L28.2,25z M0,14v5.5h6.6V36h6.6V19.5h6.6V14H0z M101.2,36V14H95v22H101.2z M76,22v-8h-6.2v22H76v-8.5h7.2V36h6.2V14h-6.2v8H76z
			 M121.8,24.5c2.8-0.7,3.6-2.4,3.6-4.8c0-4.8-3-5.8-7.4-5.8h-11.2V36h11.8c5.4,0,7.3-2.3,7.3-5.9C125.8,27.6,125.3,25.4,121.8,24.5
			 M113,27h4.3c1.7,0,2.1,0.8,2.1,2s-0.7,2-2.1,2H113V27z M113,19h4.3c1.1,0,1.8,0.5,1.8,1.8c0,1.1-0.7,1.8-1.8,1.8H113V19z
			 M46.4,28.8h5.9c0,1.1,0.1,1.8,0.7,2.2c0.6,0.4,1.1,0.6,2.9,0.6c1.7,0,3.5,0,3.5-2.1c0-1.6-1-2-2.9-2.1c-4.7-0.3-6.4-0.4-8.2-1.7
			c-1.2-0.9-1.8-2.6-1.8-5c0-4,1.4-5.4,3.4-6.4c2.1-1,10.2-1,12.4,0c2.8,1.3,2.8,4,2.8,6.6h-5.9c0-1.3-0.3-1.7-0.5-1.9
			c-0.6-0.5-1.5-0.7-2.8-0.7c-1.5,0-3.3,0.1-3.3,1.9c0,1.4,0.6,2,2.2,2.1c2.2,0.1,6.6,0.3,8.1,1.2c2.2,1.3,2.7,3,2.7,5.9
			c0,4.1-1.5,5.3-3.5,6.2c-2.4,1-10.2,1-12.8-0.1C46.5,34.3,46.4,31.8,46.4,28.8"/>
	</g>
</g>
</svg>
