<svg id="Capa_1" data-name="Capa 1" xmlns="http://www.w3.org/2000/svg" xmlns:xlink="http://www.w3.org/1999/xlink" viewBox="0 0 286.73 297.67"><defs><style>.cls-1{fill:url(#Degradado_sin_nombre_10);}</style><linearGradient id="Degradado_sin_nombre_10" x1="150.84" y1="317" x2="437.57" y2="317" gradientUnits="userSpaceOnUse"><stop offset="0" stop-color="#0aafb8"/><stop offset="1" stop-color="#0061ff"/></linearGradient></defs><title>logo</title><path class="cls-1" d="M390,385.32l30.91,80.52H388.3a40.05,40.05,0,0,1-37.39-25.7l-18.19-47.38-2.85-7.44h0L314.1,344.25l-5.77-15H329a52.47,52.47,0,0,0,0-104.94H150.84v-56.1H329a108.58,108.58,0,0,1,55.18,202.09ZM330.78,304.8A26.71,26.71,0,0,0,350,296.58a28.4,28.4,0,0,0,8-19.84c0-15.49-12.19-28-27.22-28H150.84V465.84H334.7L323,435.43a40.05,40.05,0,0,0-37.39-25.7H207V385.32h96.82L292.1,354.91a40.06,40.06,0,0,0-37.4-25.7H207V304.8H330.78Z" transform="translate(-150.84 -168.17)"/></svg>